<svg xmlns="http://www.w3.org/2000/svg" width="2048" height="512" fill="none">
    <path fill="#0DB7ED" d="M0 0h2048v512H0z"/>
    <path fill="#fff" d="M1198.46 224.691c-.99-.808-9.98-7.586-28.96-7.586-5.03 0-10.05.373-15.01 1.306-3.66-25.308-24.51-37.62-25.44-38.179l-5.08-2.985-3.35 4.85a67.944 67.944 0 0 0-9.06 21.266c-3.41 14.426-1.36 27.981 5.96 39.547-8.81 4.912-23.02 6.156-25.87 6.218H857.116c-6.141 0-11.104 4.974-11.104 11.13a171.164 171.164 0 0 0 10.235 60.378c8.064 21.266 20.098 36.873 35.729 46.449 17.493 10.757 45.964 16.913 78.282 16.913 14.577.062 29.154-1.306 43.482-3.98a181.238 181.238 0 0 0 56.7-20.644c14.51-8.456 27.6-19.151 38.7-31.774 18.55-21.079 29.65-44.584 37.9-65.414h3.29c20.35 0 32.88-8.146 39.76-14.986 4.59-4.352 8.19-9.638 10.48-15.545l1.43-4.29-3.54-2.674ZM878.826 242.35h31.449c1.489 0 2.729-1.243 2.729-2.736v-28.043c0-1.492-1.24-2.736-2.729-2.798h-31.449c-1.489 0-2.729 1.243-2.729 2.736v28.105a2.716 2.716 0 0 0 2.729 2.736Zm43.359 0h31.449c1.488 0 2.729-1.243 2.729-2.736v-28.043c0-1.492-1.241-2.736-2.729-2.798h-31.449a2.783 2.783 0 0 0-2.792 2.798v28.043c0 1.555 1.241 2.736 2.792 2.736Zm43.917.062h31.449c1.488 0 2.729-1.243 2.729-2.735v-28.044c0-1.492-1.241-2.736-2.729-2.798h-31.449c-1.489 0-2.73 1.244-2.73 2.736v28.106c0 1.492 1.241 2.673 2.73 2.735Zm43.478 0h31.45c1.49 0 2.73-1.243 2.79-2.735v-28.044a2.783 2.783 0 0 0-2.79-2.798h-31.45c-1.48 0-2.72 1.244-2.72 2.736v28.106c0 1.492 1.17 2.735 2.72 2.735Zm-87.457-40.417h31.449c1.488 0 2.729-1.244 2.729-2.798v-28.044c0-1.492-1.241-2.736-2.729-2.736h-31.449c-1.551 0-2.73 1.244-2.792 2.736v28.044c.062 1.554 1.303 2.798 2.792 2.798Zm43.979 0h31.449c1.488 0 2.729-1.244 2.729-2.798v-28.044c0-1.492-1.241-2.736-2.729-2.736h-31.449c-1.489 0-2.73 1.244-2.73 2.736v28.044c0 1.554 1.241 2.798 2.73 2.798Zm43.478 0h31.45c1.55 0 2.73-1.244 2.79-2.798v-28.044c0-1.554-1.24-2.736-2.79-2.736h-31.45c-1.48 0-2.72 1.244-2.72 2.736v28.044c0 1.554 1.17 2.798 2.72 2.798Zm0-40.355h31.45c1.55 0 2.79-1.244 2.79-2.798v-28.106c0-1.492-1.24-2.736-2.79-2.736h-31.45c-1.48 0-2.72 1.244-2.72 2.736v28.106c0 1.554 1.17 2.798 2.72 2.798Zm43.8 80.772h31.45c1.48 0 2.73-1.243 2.73-2.735v-28.044c0-1.554-1.25-2.736-2.73-2.798h-31.45c-1.49 0-2.73 1.244-2.73 2.736v28.106c0 1.492 1.24 2.735 2.73 2.735Z"/>
</svg>
