<svg xmlns="http://www.w3.org/2000/svg" width="512" height="512" fill="none">
    <path fill="#0DB7ED" d="M0 0h512v512H0z"/>
    <path fill="#fff" d="M430.464 224.691c-.992-.808-9.986-7.586-28.968-7.586-5.024 0-10.048.373-15.011 1.306-3.659-25.308-24.501-37.62-25.432-38.179l-5.086-2.985-3.35 4.85a67.958 67.958 0 0 0-9.056 21.266c-3.412 14.426-1.365 27.981 5.955 39.547-8.808 4.912-23.013 6.156-25.867 6.218H89.116c-6.141 0-11.104 4.974-11.104 11.13a171.155 171.155 0 0 0 10.235 60.378c8.064 21.266 20.098 36.873 35.729 46.449 17.493 10.757 45.964 16.913 78.282 16.913 14.577.062 29.154-1.306 43.482-3.98a181.156 181.156 0 0 0 56.695-20.644c14.515-8.456 27.603-19.151 38.707-31.774 18.547-21.079 29.65-44.584 37.9-65.414h3.287c20.346 0 32.876-8.146 39.761-14.986 4.59-4.352 8.188-9.638 10.483-15.545l1.427-4.29-3.536-2.674ZM110.826 242.35h31.449c1.489 0 2.729-1.243 2.729-2.736v-28.043c0-1.492-1.24-2.736-2.729-2.798h-31.449c-1.489 0-2.729 1.243-2.729 2.736v28.105a2.716 2.716 0 0 0 2.729 2.736Zm43.359 0h31.449c1.488 0 2.729-1.243 2.729-2.736v-28.043c0-1.492-1.241-2.736-2.729-2.798h-31.449a2.783 2.783 0 0 0-2.792 2.798v28.043c0 1.555 1.241 2.736 2.792 2.736Zm43.917.062h31.449c1.488 0 2.729-1.243 2.729-2.735v-28.044c0-1.492-1.241-2.736-2.729-2.798h-31.449c-1.489 0-2.73 1.244-2.73 2.736v28.106c0 1.492 1.241 2.673 2.73 2.735Zm43.482 0h31.449c1.489 0 2.73-1.243 2.792-2.735v-28.044a2.784 2.784 0 0 0-2.792-2.798h-31.449c-1.488 0-2.729 1.244-2.729 2.736v28.106a2.716 2.716 0 0 0 2.729 2.735Zm-87.461-40.417h31.449c1.488 0 2.729-1.244 2.729-2.798v-28.044c0-1.492-1.241-2.736-2.729-2.736h-31.449c-1.551 0-2.73 1.244-2.792 2.736v28.044c.062 1.554 1.303 2.798 2.792 2.798Zm43.979 0h31.449c1.488 0 2.729-1.244 2.729-2.798v-28.044c0-1.492-1.241-2.736-2.729-2.736h-31.449c-1.489 0-2.73 1.244-2.73 2.736v28.044c0 1.554 1.241 2.798 2.73 2.798Zm43.482 0h31.449c1.551 0 2.73-1.244 2.792-2.798v-28.044c0-1.554-1.241-2.736-2.792-2.736h-31.449c-1.488 0-2.729 1.244-2.729 2.736v28.044c0 1.554 1.179 2.798 2.729 2.798Zm0-40.355h31.449a2.784 2.784 0 0 0 2.792-2.798v-28.106c0-1.492-1.241-2.736-2.792-2.736h-31.449c-1.488 0-2.729 1.244-2.729 2.736v28.106c0 1.554 1.179 2.798 2.729 2.798Zm43.793 80.772h31.449c1.489 0 2.729-1.243 2.729-2.735v-28.044c0-1.554-1.24-2.736-2.729-2.798h-31.449c-1.488 0-2.729 1.244-2.729 2.736v28.106c0 1.492 1.241 2.735 2.729 2.735Z"/>
</svg>
